<svg xmlns="http://www.w3.org/2000/svg" viewBox="0 0 512 512">
  <defs>
    <linearGradient id="bg" x1="0%" y1="0%" x2="100%" y2="100%">
      <stop offset="0%" stop-color="#10b981"/>
      <stop offset="50%" stop-color="#059669"/>
      <stop offset="100%" stop-color="#065f46"/>
    </linearGradient>
  </defs>
  <!-- Full bleed background (required for maskable) -->
  <rect width="512" height="512" fill="url(#bg)"/>
  <!-- Safe area: content only in center 80% (408x408 area centered) -->
  <g transform="translate(256, 256)">
    <!-- Open book -->
    <path d="M -150 -90 L 0 -75 L 150 -90 L 150 100 L 0 110 L -150 100 Z" fill="#ffffff" stroke="#047857" stroke-width="2"/>
    <line x1="0" y1="-75" x2="0" y2="110" stroke="#047857" stroke-width="2.5"/>
    <!-- Decorative arch -->
    <path d="M -100 -90 Q -100 -150 0 -150 Q 100 -150 100 -90" fill="none" stroke="#ffffff" stroke-width="4" opacity="0.9"/>
    <!-- Crescent and star -->
    <g transform="translate(0, -180)">
      <path d="M 0 -20 A 20 20 0 1 0 8 0 A 16 16 0 1 1 0 -20" fill="#fbbf24"/>
      <circle cx="22" cy="-15" r="4" fill="#fbbf24"/>
    </g>
    <!-- Text lines on left page -->
    <g stroke="#047857" stroke-width="3" stroke-linecap="round" opacity="0.65">
      <line x1="-130" y1="-55" x2="-20" y2="-50"/>
      <line x1="-130" y1="-35" x2="-20" y2="-30"/>
      <line x1="-130" y1="-15" x2="-30" y2="-10"/>
      <line x1="-130" y1="5" x2="-20" y2="10"/>
      <line x1="-130" y1="25" x2="-40" y2="30"/>
      <line x1="-130" y1="45" x2="-20" y2="50"/>
      <line x1="-130" y1="65" x2="-30" y2="70"/>
    </g>
    <!-- Text lines on right page -->
    <g stroke="#047857" stroke-width="3" stroke-linecap="round" opacity="0.65">
      <line x1="20" y1="-50" x2="130" y2="-55"/>
      <line x1="20" y1="-30" x2="130" y2="-35"/>
      <line x1="30" y1="-10" x2="130" y2="-15"/>
      <line x1="20" y1="10" x2="130" y2="5"/>
      <line x1="40" y1="30" x2="130" y2="25"/>
      <line x1="20" y1="50" x2="130" y2="45"/>
      <line x1="30" y1="70" x2="130" y2="65"/>
    </g>
  </g>
</svg>